<svg width="300" height="91" fill="none" xmlns="http://www.w3.org/2000/svg"><path d="M1 12c9.546 21.035 8.514 34.083 0 55.917C16.133 48.43 51.615 88.183 57.15 51.998c-17.8 11.26-27.114-10.203-39.165-.005C26.203 43.94 22.368 13.61 1 12Z" fill="#05932D"/><path d="M57.159 51.94C51.653 88.225 16.14 48.42 1 67.918 9.514 46.083 10.546 33.035 1 12c21.368 1.61 25.203 31.94 16.985 39.992 12.053-10.199 21.367 11.274 39.174 0" stroke="#000" stroke-width="1.1"/><ellipse cx="59.579" cy="47.376" rx="2.421" ry="2.282" fill="#0590A8"/><path d="M80.928 68V23.2h8.192v37.504h18.432V68H80.928Zm44.937.64c-3.477 0-6.443-.757-8.896-2.272-2.453-1.515-4.331-3.53-5.632-6.048-1.28-2.517-1.92-5.27-1.92-8.256 0-3.008.64-5.781 1.92-8.32 1.301-2.539 3.179-4.565 5.632-6.08 2.453-1.536 5.419-2.304 8.896-2.304 3.477 0 6.443.768 8.896 2.304 2.453 1.515 4.32 3.541 5.6 6.08 1.301 2.539 1.952 5.312 1.952 8.32 0 2.987-.651 5.739-1.952 8.256-1.28 2.517-3.147 4.533-5.6 6.048-2.453 1.515-5.419 2.272-8.896 2.272Zm0-6.528c2.667 0 4.715-.928 6.144-2.784 1.451-1.877 2.176-4.299 2.176-7.264 0-3.008-.725-5.45-2.176-7.328-1.429-1.899-3.477-2.848-6.144-2.848-2.645 0-4.693.95-6.144 2.848-1.451 1.877-2.176 4.32-2.176 7.328 0 2.965.725 5.387 2.176 7.264 1.451 1.856 3.499 2.784 6.144 2.784Zm36.82 6.528c-3.669 0-6.752-.747-9.248-2.24-2.475-1.515-4.352-3.52-5.632-6.016-1.259-2.517-1.888-5.29-1.888-8.32 0-3.05.629-5.835 1.888-8.352 1.259-2.539 3.147-4.565 5.664-6.08 2.517-1.515 5.675-2.272 9.472-2.272 1.792 0 3.413.203 4.864.608 1.451.384 2.688.864 3.712 1.44l-.64 6.4c-.981-.512-2.091-.939-3.328-1.28a14.146 14.146 0 0 0-3.84-.512c-3.072 0-5.451.928-7.136 2.784-1.685 1.856-2.528 4.277-2.528 7.264 0 2.837.864 5.227 2.592 7.168 1.728 1.92 4.064 2.88 7.008 2.88 1.259 0 2.496-.181 3.712-.544A17.759 17.759 0 0 0 170.941 60l.704 6.72c-1.109.576-2.453 1.035-4.032 1.376-1.557.363-3.2.544-4.928.544Zm21.189 0c-1.707 0-3.264-.373-4.672-1.12-1.408-.768-2.528-1.867-3.36-3.296-.832-1.43-1.248-3.157-1.248-5.184 0-1.813.416-3.36 1.248-4.64a10.706 10.706 0 0 1 3.328-3.232 18.557 18.557 0 0 1 4.48-2.048 31.355 31.355 0 0 1 4.768-1.12c1.579-.235 2.965-.373 4.16-.416-.085-1.835-.555-3.168-1.408-4-.853-.832-2.304-1.248-4.352-1.248-1.429 0-2.827.203-4.192.608-1.344.384-2.869.992-4.576 1.824l-.704-6.464c1.92-.939 3.84-1.643 5.76-2.112a24.97 24.97 0 0 1 5.888-.704c2.389 0 4.448.427 6.176 1.28 1.728.853 3.061 2.23 4 4.128.939 1.877 1.408 4.363 1.408 7.456v8.64c0 1.6.075 2.763.224 3.488.149.704.427 1.152.832 1.344.405.192.992.288 1.76.288h1.024l-.704 6.528h-2.88c-1.195 0-2.261-.16-3.2-.48-.917-.299-1.707-.725-2.368-1.28a6.702 6.702 0 0 1-1.6-1.952c-1.045 1.173-2.464 2.09-4.256 2.752-1.771.64-3.616.96-5.536.96Zm3.328-6.08c.704 0 1.579-.181 2.624-.544a8.136 8.136 0 0 0 2.816-1.76V52.96c-1.493.064-2.987.31-4.48.736-1.493.427-2.741 1.056-3.744 1.888-1.003.832-1.504 1.877-1.504 3.136 0 1.301.341 2.272 1.024 2.912.683.619 1.771.928 3.264.928Zm29.827 6.08c-1.899 0-3.456-.373-4.672-1.12-1.195-.768-2.08-1.781-2.656-3.04-.576-1.28-.864-2.688-.864-4.224V20h7.936v36.992c0 1.707.096 2.923.288 3.648.213.704.597 1.13 1.152 1.28.555.128 1.355.192 2.4.192l-.704 6.528h-2.88Zm8.621-.64V36h7.936v32h-7.936Zm0-36.864V23.2h7.936v7.936h-7.936ZM238.465 68l17.344-28.16.896 2.88h-16.768V36h26.496l-17.344 28.16-1.216-2.88h18.688V68h-28.096Zm47.734.64c-3.862 0-7.083-.768-9.664-2.304-2.56-1.557-4.48-3.605-5.76-6.144-1.28-2.56-1.92-5.355-1.92-8.384 0-2.923.597-5.621 1.792-8.096a14.596 14.596 0 0 1 5.312-5.952c2.325-1.515 5.162-2.272 8.512-2.272 3.072 0 5.632.63 7.68 1.888 2.048 1.259 3.584 2.944 4.608 5.056 1.024 2.09 1.536 4.405 1.536 6.944 0 .704-.043 1.419-.128 2.144-.086.704-.214 1.44-.384 2.208h-20.672c.298 1.984.917 3.595 1.856 4.832.96 1.216 2.122 2.112 3.488 2.688 1.386.576 2.869.864 4.448.864 1.856 0 3.584-.235 5.184-.704 1.6-.49 3.072-1.13 4.416-1.92l.384 6.72c-1.216.64-2.731 1.205-4.544 1.696-1.814.49-3.862.736-6.144.736Zm-8.896-20.288h12.928c0-.96-.182-1.92-.544-2.88a5.471 5.471 0 0 0-1.824-2.464c-.832-.661-1.963-.992-3.392-.992-2.048 0-3.659.597-4.832 1.792-1.174 1.195-1.952 2.71-2.336 4.544Z" fill="#000"/></svg>